<svg xmlns="http://www.w3.org/2000/svg" viewBox="50 25 162 108"><g transform="translate(0 155) scale(1 -1)"><path fill="#f2a560" transform="translate(55.8674 71.544)" d="M 0 0 L 0.002 42.613 L 66.062 42.613 C 66.711 42.613 65.893 41.546 65.79 41.386 C 62.82 36.746 59.301 32.402 56.212 27.837 L 17.133 27.837 L 17.133 22.377 L 51.904 22.254 L 52.157 21.835 L 43.693 9.582 C 43.591 9.458 43.263 9.208 43.15 9.208 L 17.133 9.208 L 17.133 2.57 L 43.15 2.57 C 43.454 2.57 47.926 4.57 48.772 4.871 C 75.068 14.232 103.362 20.192 131.315 14.716 C 135.903 13.818 146.1 11.124 149.83 8.607 C 150.105 8.421 150.415 8.364 150.323 7.924 C 145.07 9.131 139.753 10.212 134.369 10.704 C 121.604 11.872 108.626 10.506 96.206 7.444 C 83.883 4.405 71.929 -0.469 60.848 -6.639 C 59.486 -7.397 58.137 -8.176 56.8 -8.977 C 56.132 -9.378 55.467 -9.784 54.806 -10.197 C 54.419 -10.438 53.431 -11.345 52.996 -11.345 C 52.996 -11.345 0.002 -11.349 0.002 -11.349 L 0.002 -4.497 Z"/><path fill="#204057" transform="translate(157.582 89.9605)" d="M 0 0 L -18.267 -1.889 L -23.661 5.776 L -30.891 -4.656 C -39.87 -7.043 -48.79 -9.754 -57.385 -13.277 L -57.276 -12.425 L -32.541 21.513 C -27.846 26.839 -19.711 26.799 -14.995 21.513 C -9.656 15.53 -5.405 7.021 -0.199 0.762 Z"/><path fill="#1d3947" transform="translate(165.4615 79.4184)" d="M 0 0 L 13.211 -18.585 L 13.108 -19.337 L -7.278 -19.225 L -17.531 -4.358 L -17.728 -3.594 C -11.891 -2.155 -6.027 -0.408 0 0"/></g></svg>